<mxfile host="Electron" modified="2023-07-26T16:10:57.998Z" agent="Mozilla/5.0 (Windows NT 10.0; Win64; x64) AppleWebKit/537.36 (KHTML, like Gecko) draw.io/21.6.5 Chrome/114.0.5735.243 Electron/25.3.1 Safari/537.36" etag="mAxsosSmte7UVMbIEz7s" version="21.6.5" type="device">
  <diagram name="Страница 1" id="3c1e3bf_TXJG6e5-QiBg">
    <mxGraphModel dx="1038" dy="616" grid="1" gridSize="10" guides="1" tooltips="1" connect="1" arrows="1" fold="1" page="1" pageScale="1" pageWidth="827" pageHeight="1169" math="0" shadow="0">
      <root>
        <mxCell id="0" />
        <mxCell id="1" parent="0" />
        <mxCell id="1jA6O9iEtBHaaazDHBzr-1" value="" style="edgeStyle=orthogonalEdgeStyle;rounded=0;orthogonalLoop=1;jettySize=auto;html=1;" edge="1" parent="1" source="1jA6O9iEtBHaaazDHBzr-21">
          <mxGeometry relative="1" as="geometry">
            <mxPoint x="347" y="176" as="sourcePoint" />
            <mxPoint x="346" y="210" as="targetPoint" />
          </mxGeometry>
        </mxCell>
        <mxCell id="1jA6O9iEtBHaaazDHBzr-2" value="" style="edgeStyle=orthogonalEdgeStyle;rounded=0;orthogonalLoop=1;jettySize=auto;html=1;" edge="1" parent="1" source="1jA6O9iEtBHaaazDHBzr-3" target="1jA6O9iEtBHaaazDHBzr-15">
          <mxGeometry relative="1" as="geometry" />
        </mxCell>
        <mxCell id="1jA6O9iEtBHaaazDHBzr-3" value="start" style="ellipse;whiteSpace=wrap;html=1;labelBackgroundColor=none;" vertex="1" parent="1">
          <mxGeometry x="286" width="120" height="80" as="geometry" />
        </mxCell>
        <mxCell id="1jA6O9iEtBHaaazDHBzr-4" value="" style="edgeStyle=orthogonalEdgeStyle;rounded=0;orthogonalLoop=1;jettySize=auto;html=1;" edge="1" parent="1" source="1jA6O9iEtBHaaazDHBzr-5" target="1jA6O9iEtBHaaazDHBzr-26">
          <mxGeometry relative="1" as="geometry">
            <Array as="points">
              <mxPoint x="130" y="656" />
            </Array>
          </mxGeometry>
        </mxCell>
        <mxCell id="1jA6O9iEtBHaaazDHBzr-5" value="if&amp;nbsp;ifOurNumber is true" style="rhombus;whiteSpace=wrap;html=1;rounded=0;" vertex="1" parent="1">
          <mxGeometry x="275" y="620" width="146" height="72" as="geometry" />
        </mxCell>
        <mxCell id="1jA6O9iEtBHaaazDHBzr-6" value="end" style="ellipse;whiteSpace=wrap;html=1;rounded=0;" vertex="1" parent="1">
          <mxGeometry x="308" y="850" width="80" height="80" as="geometry" />
        </mxCell>
        <mxCell id="1jA6O9iEtBHaaazDHBzr-7" value="" style="edgeStyle=orthogonalEdgeStyle;rounded=0;orthogonalLoop=1;jettySize=auto;html=1;" edge="1" parent="1" source="1jA6O9iEtBHaaazDHBzr-5">
          <mxGeometry relative="1" as="geometry">
            <mxPoint x="650" y="672" as="targetPoint" />
            <mxPoint x="419" y="642" as="sourcePoint" />
            <Array as="points">
              <mxPoint x="650" y="656" />
            </Array>
          </mxGeometry>
        </mxCell>
        <mxCell id="1jA6O9iEtBHaaazDHBzr-8" style="edgeStyle=orthogonalEdgeStyle;rounded=0;orthogonalLoop=1;jettySize=auto;html=1;entryX=1;entryY=0.5;entryDx=0;entryDy=0;" edge="1" parent="1" source="1jA6O9iEtBHaaazDHBzr-9" target="1jA6O9iEtBHaaazDHBzr-6">
          <mxGeometry relative="1" as="geometry">
            <Array as="points">
              <mxPoint x="620" y="890" />
            </Array>
          </mxGeometry>
        </mxCell>
        <mxCell id="1jA6O9iEtBHaaazDHBzr-9" value="print Yes" style="shape=document;whiteSpace=wrap;html=1;boundedLbl=1;size=0.5294117647058824;" vertex="1" parent="1">
          <mxGeometry x="590" y="672" width="120" height="80" as="geometry" />
        </mxCell>
        <mxCell id="1jA6O9iEtBHaaazDHBzr-10" value="" style="edgeStyle=orthogonalEdgeStyle;rounded=0;orthogonalLoop=1;jettySize=auto;html=1;" edge="1" parent="1" source="1jA6O9iEtBHaaazDHBzr-11" target="1jA6O9iEtBHaaazDHBzr-17">
          <mxGeometry relative="1" as="geometry" />
        </mxCell>
        <mxCell id="1jA6O9iEtBHaaazDHBzr-11" value="int[] array= {1 ,2, 3}" style="shape=parallelogram;perimeter=parallelogramPerimeter;whiteSpace=wrap;html=1;fixedSize=1;labelBackgroundColor=none;" vertex="1" parent="1">
          <mxGeometry x="251" y="330" width="194" height="40" as="geometry" />
        </mxCell>
        <mxCell id="1jA6O9iEtBHaaazDHBzr-12" value="" style="edgeStyle=orthogonalEdgeStyle;rounded=0;orthogonalLoop=1;jettySize=auto;html=1;" edge="1" parent="1" source="1jA6O9iEtBHaaazDHBzr-21" target="1jA6O9iEtBHaaazDHBzr-14">
          <mxGeometry relative="1" as="geometry" />
        </mxCell>
        <mxCell id="1jA6O9iEtBHaaazDHBzr-13" value="" style="edgeStyle=orthogonalEdgeStyle;rounded=0;orthogonalLoop=1;jettySize=auto;html=1;" edge="1" parent="1" source="1jA6O9iEtBHaaazDHBzr-14" target="1jA6O9iEtBHaaazDHBzr-11">
          <mxGeometry relative="1" as="geometry" />
        </mxCell>
        <mxCell id="1jA6O9iEtBHaaazDHBzr-14" value="int[] array" style="whiteSpace=wrap;html=1;labelBackgroundColor=none;" vertex="1" parent="1">
          <mxGeometry x="288" y="280" width="120" height="23" as="geometry" />
        </mxCell>
        <mxCell id="1jA6O9iEtBHaaazDHBzr-15" value="int N" style="whiteSpace=wrap;html=1;labelBackgroundColor=none;" vertex="1" parent="1">
          <mxGeometry x="286" y="120" width="120" height="30" as="geometry" />
        </mxCell>
        <mxCell id="1jA6O9iEtBHaaazDHBzr-16" value="" style="edgeStyle=orthogonalEdgeStyle;rounded=0;orthogonalLoop=1;jettySize=auto;html=1;" edge="1" parent="1" source="1jA6O9iEtBHaaazDHBzr-17" target="1jA6O9iEtBHaaazDHBzr-19">
          <mxGeometry relative="1" as="geometry" />
        </mxCell>
        <mxCell id="1jA6O9iEtBHaaazDHBzr-17" value="int X" style="whiteSpace=wrap;html=1;labelBackgroundColor=none;" vertex="1" parent="1">
          <mxGeometry x="288" y="400" width="120" height="30" as="geometry" />
        </mxCell>
        <mxCell id="1jA6O9iEtBHaaazDHBzr-18" value="" style="edgeStyle=orthogonalEdgeStyle;rounded=0;orthogonalLoop=1;jettySize=auto;html=1;" edge="1" parent="1" source="1jA6O9iEtBHaaazDHBzr-19" target="1jA6O9iEtBHaaazDHBzr-23">
          <mxGeometry relative="1" as="geometry" />
        </mxCell>
        <mxCell id="1jA6O9iEtBHaaazDHBzr-19" value="int X= num" style="shape=parallelogram;perimeter=parallelogramPerimeter;whiteSpace=wrap;html=1;fixedSize=1;" vertex="1" parent="1">
          <mxGeometry x="276" y="460" width="144" height="30" as="geometry" />
        </mxCell>
        <mxCell id="1jA6O9iEtBHaaazDHBzr-20" value="" style="edgeStyle=orthogonalEdgeStyle;rounded=0;orthogonalLoop=1;jettySize=auto;html=1;" edge="1" parent="1" source="1jA6O9iEtBHaaazDHBzr-15" target="1jA6O9iEtBHaaazDHBzr-21">
          <mxGeometry relative="1" as="geometry">
            <mxPoint x="346" y="150" as="sourcePoint" />
            <mxPoint x="346" y="210" as="targetPoint" />
          </mxGeometry>
        </mxCell>
        <mxCell id="1jA6O9iEtBHaaazDHBzr-21" value="int N= num" style="shape=parallelogram;perimeter=parallelogramPerimeter;whiteSpace=wrap;html=1;fixedSize=1;" vertex="1" parent="1">
          <mxGeometry x="274" y="190" width="144" height="40" as="geometry" />
        </mxCell>
        <mxCell id="1jA6O9iEtBHaaazDHBzr-22" value="" style="edgeStyle=orthogonalEdgeStyle;rounded=0;orthogonalLoop=1;jettySize=auto;html=1;" edge="1" parent="1" source="1jA6O9iEtBHaaazDHBzr-23" target="1jA6O9iEtBHaaazDHBzr-5">
          <mxGeometry relative="1" as="geometry" />
        </mxCell>
        <mxCell id="1jA6O9iEtBHaaazDHBzr-23" value="boolean&amp;nbsp;ifOurNumber&lt;span style=&quot;background-color: initial;&quot;&gt;&amp;nbsp;&lt;/span&gt;" style="whiteSpace=wrap;html=1;" vertex="1" parent="1">
          <mxGeometry x="288" y="520" width="120" height="30" as="geometry" />
        </mxCell>
        <mxCell id="1jA6O9iEtBHaaazDHBzr-24" value="true" style="text;html=1;strokeColor=none;fillColor=none;align=center;verticalAlign=middle;whiteSpace=wrap;rounded=0;" vertex="1" parent="1">
          <mxGeometry x="430" y="620" width="60" height="30" as="geometry" />
        </mxCell>
        <mxCell id="1jA6O9iEtBHaaazDHBzr-25" style="edgeStyle=orthogonalEdgeStyle;rounded=0;orthogonalLoop=1;jettySize=auto;html=1;entryX=0;entryY=0.5;entryDx=0;entryDy=0;" edge="1" parent="1" source="1jA6O9iEtBHaaazDHBzr-26" target="1jA6O9iEtBHaaazDHBzr-6">
          <mxGeometry relative="1" as="geometry">
            <Array as="points">
              <mxPoint x="100" y="890" />
            </Array>
          </mxGeometry>
        </mxCell>
        <mxCell id="1jA6O9iEtBHaaazDHBzr-26" value="print No" style="shape=document;whiteSpace=wrap;html=1;boundedLbl=1;" vertex="1" parent="1">
          <mxGeometry x="70" y="672" width="120" height="80" as="geometry" />
        </mxCell>
        <mxCell id="1jA6O9iEtBHaaazDHBzr-27" value="false" style="text;html=1;strokeColor=none;fillColor=none;align=center;verticalAlign=middle;whiteSpace=wrap;rounded=0;" vertex="1" parent="1">
          <mxGeometry x="210" y="620" width="60" height="30" as="geometry" />
        </mxCell>
      </root>
    </mxGraphModel>
  </diagram>
</mxfile>
